# xmcd
#
# Track frame offsets: 
#        150
#        30078
#        68856
#        96009
#        127512
#        145665
#        170193
#        194121
#        260274
#        284802
#
# Disc length: 4694 seconds
#
# Revision: 0
# Processed by: cddbd v1.5.2PL0 Copyright (c) Steve Scherf et al.
# Submitted via: ExactAudioCopy v0.95b4
#
DISCID=8e12540a
DTITLE=Dickey Betts - Live Lonestar Roadhouse NYC 11-01-1988 Disc 1
DYEAR=1988
DGENRE=Rock
TTITLE0=Rock Bottom
TTITLE1=Blue Sky
TTITLE2=Time to Roll
TTITLE3=Duane's Tune
TTITLE4=Blues Ain't Nothin'
TTITLE5=Far Cry
TTITLE6=Heartbreak Line
TTITLE7=In Memory Of Elizabeth Reed
TTITLE8=Lover Man
TTITLE9=Jessica
EXTD=
EXTT0=
EXTT1=
EXTT2=
EXTT3=
EXTT4=
EXTT5=
EXTT6=
EXTT7=
EXTT8=
EXTT9=
PLAYORDER=
